<svg width="91" height="91" viewBox="0 0 91 91" fill="none" xmlns="http://www.w3.org/2000/svg">
<rect width="91" height="91" rx="4" fill="#3A587E"/>
<path d="M15.2252 72.1415L15.2953 75H13.4036L13.4877 72.3097L13.4176 67.4475H10.1668L10.0968 72.1415L10.1668 75H8.27521L8.35929 72.3097L8.27521 65.9762H15.3233L15.2252 72.1415ZM24.7654 75H22.8317L22.6075 73.823L22.3693 72.9823L20.6038 72.9402L19.0484 72.9823L18.8102 73.7249L18.572 75H16.6944L19.749 65.9762H22.005L24.7654 75ZM21.9629 71.511L20.898 67.7558H20.7719L19.5388 71.511L20.7439 71.539L21.9629 71.511ZM29.6481 65.9622C30.5916 65.9622 31.3156 66.2004 31.82 66.6768C32.3338 67.1532 32.5907 67.8352 32.5907 68.7226C32.5907 69.4045 32.4412 70.0024 32.1423 70.5161C31.8433 71.0206 31.4136 71.4129 30.8532 71.6931C30.302 71.9734 29.6528 72.1135 28.9055 72.1135H28.0087V72.1415L28.0928 75H26.1871L26.2852 72.3097L26.1871 65.9762L29.6481 65.9622ZM29.3258 70.7263C30.1853 70.4834 30.615 69.8716 30.615 68.8907C30.615 68.3863 30.4842 68.0126 30.2226 67.7698C29.9704 67.5175 29.5781 67.3821 29.0456 67.3634L28.0928 67.4195L28.0367 70.6703L29.3258 70.7263ZM40.4605 75H38.5269L38.3027 73.823L38.0645 72.9823L36.2989 72.9402L34.7436 72.9823L34.5054 73.7249L34.2672 75H32.3896L35.4442 65.9762H37.7001L40.4605 75ZM37.6581 71.511L36.5932 67.7558H36.4671L35.234 71.511L36.4391 71.539L37.6581 71.511ZM51.3545 75H49.673L49.5329 72.2676L49.2106 68.7926H49.0705L47.0528 74.0472H45.5815L43.7459 68.7926H43.6198L43.2695 72.0855L43.0733 75H41.476L42.3867 65.9762H44.5726L44.9369 67.3074L46.3662 71.5811H46.4923L47.9916 67.3074L48.3979 65.9762H50.5418L51.3545 75ZM59.0515 73.4306L59.1636 73.5848L59.0375 75H53.3766L53.4747 72.3097L53.3766 65.9762H59.0935L59.2056 66.1304L59.0655 67.5456L56.9076 67.4755L55.2822 67.4895L55.2402 69.6614L56.7955 69.6894L58.2668 69.6474L58.3789 69.7875L58.2528 71.2027L56.6554 71.1607L55.2122 71.1747L55.1982 72.1415L55.2402 73.5007L56.8236 73.5147L59.0515 73.4306ZM66.6029 66.1304L66.4908 67.5456L64.7953 67.4615H64.2349L64.1648 72.1415L64.2489 75H62.3432L62.4413 72.3097L62.3713 67.4615H61.8108L60.0873 67.5456L59.9612 67.3914L60.0873 65.9762H66.4908L66.6029 66.1304ZM71.356 65.9622C72.2994 65.9622 73.0234 66.2004 73.5278 66.6768C74.0416 67.1532 74.2985 67.8352 74.2985 68.7226C74.2985 69.4045 74.149 70.0024 73.8501 70.5161C73.5512 71.0206 73.1215 71.4129 72.561 71.6931C72.0098 71.9734 71.3606 72.1135 70.6133 72.1135H69.7165V72.1415L69.8006 75H67.895L67.9931 72.3097L67.895 65.9762L71.356 65.9622ZM71.0337 70.7263C71.8931 70.4834 72.3228 69.8716 72.3228 68.8907C72.3228 68.3863 72.192 68.0126 71.9304 67.7698C71.6782 67.5175 71.2859 67.3821 70.7534 67.3634L69.8006 67.4195L69.7446 70.6703L71.0337 70.7263ZM79.1517 69.4372C79.9924 69.4372 80.637 69.6521 81.0854 70.0818C81.5338 70.5021 81.7579 71.1093 81.7579 71.9033C81.7579 72.8748 81.4357 73.6362 80.7911 74.1873C80.1466 74.7291 79.2498 75 78.1008 75H75.6066L75.7047 72.3237L75.6066 65.9762H77.5263L77.4702 69.4372H79.1517ZM84.6304 72.1415L84.7145 75H82.8088L82.9069 72.3097L82.8088 65.9762H84.7425L84.6304 72.1415ZM78.6052 73.6829C78.9882 73.6081 79.2825 73.44 79.488 73.1784C79.6935 72.9075 79.7963 72.5666 79.7963 72.1555C79.7963 71.7165 79.6842 71.3802 79.46 71.1467C79.2451 70.9038 78.9322 70.7824 78.5212 70.7824L77.4562 70.8104L77.4282 72.1415L77.4702 73.6268L78.6052 73.6829Z" fill="white"/>
<g clip-path="url(#clip0_2_30)">
<path d="M45.2132 17.3261L38.5439 23.9954C38.1091 24.4301 38.1091 25.1351 38.5439 25.5698L41.693 28.7189C41.9565 28.9824 42.3191 29.0865 42.6606 29.0304V32.6602H39.0307C39.088 32.3124 38.9769 31.9502 38.7194 31.6927L35.5703 28.5436C35.1359 28.1091 34.4306 28.1088 33.9959 28.5436L27.3266 35.2128C26.8918 35.6475 26.8918 36.3525 27.3266 36.7873L33.9959 43.4566C34.4303 43.891 35.1356 43.8913 35.5703 43.4566L38.7194 40.3074C38.9771 40.0497 39.0879 39.6874 39.0307 39.3399H42.6605V42.9697C42.3191 42.9136 41.9563 43.0177 41.6929 43.2811L38.5438 46.4302C38.1091 46.8649 38.1091 47.5698 38.5438 48.0046L45.2131 54.6739C45.6479 55.1087 46.3528 55.1087 46.7875 54.6739L53.4568 48.0046C53.8912 47.5701 53.8916 46.8649 53.4568 46.4302L50.3077 43.2811C50.0443 43.0177 49.6816 42.9136 49.3402 42.9697V39.3399H52.9701C52.9128 39.6878 53.0239 40.05 53.2815 40.3074L56.4306 43.4566C56.865 43.8911 57.5703 43.8914 58.005 43.4566L64.6743 36.7873C65.109 36.3526 65.109 35.6477 64.6743 35.2129L58.005 28.5436C57.5706 28.1091 56.8653 28.1089 56.4306 28.5436L53.2815 31.6928C53.0237 31.9505 52.9129 32.3128 52.9701 32.6603H49.3402V29.0305C49.6816 29.0865 50.0443 28.9825 50.3077 28.7191L53.4568 25.57C53.8914 25.1355 53.8915 24.4303 53.4568 23.9956L46.7875 17.3263C46.3528 16.8914 45.6479 16.8914 45.2132 17.3261ZM49.5206 26.3574L49.0142 25.851C48.3157 25.1523 47.1137 25.6469 47.1137 26.6381V33.7735C47.1137 34.3884 47.6121 34.8868 48.2269 34.8868H55.3623C56.3507 34.8868 56.8502 33.687 56.1495 32.9864L55.6431 32.48L57.2178 30.9052L62.3127 36.0001L57.2179 41.0951L55.6432 39.5203L56.1496 39.0139C56.8484 38.315 56.3532 37.1134 55.3623 37.1134H48.2269C47.6121 37.1134 47.1137 37.6118 47.1137 38.2267V45.362C47.1137 46.3538 48.3162 46.8474 49.0141 46.1492L49.5205 45.6428L51.0952 47.2175L46.0004 52.3124L40.9056 47.2174L42.4802 45.6427L42.9867 46.1491C43.6853 46.848 44.8871 46.3529 44.8871 45.362V38.2267C44.8871 37.6118 44.3886 37.1134 43.7738 37.1134H36.6384C35.6501 37.1134 35.1506 38.3132 35.8513 39.0138L36.3577 39.5202L34.783 41.095L29.6881 36.0001L34.7829 30.9051L36.3576 32.4799L35.8512 32.9863C35.1523 33.6852 35.6475 34.8868 36.6384 34.8868H43.7738C44.3886 34.8868 44.8871 34.3884 44.8871 33.7735V26.6381C44.8871 25.6502 43.6874 25.1502 42.9867 25.851L42.4802 26.3574L40.9056 24.7827L46.0004 19.6877L51.0952 24.7827L49.5206 26.3574Z" fill="white"/>
</g>
<defs>
<clipPath id="clip0_2_30">
<rect width="38" height="38" fill="white" transform="translate(27 17)"/>
</clipPath>
</defs>
</svg>
