<svg width="20" height="20" viewBox="0 0 20 20" fill="none" xmlns="http://www.w3.org/2000/svg">
<g clip-path="url(#clip0_2_1219)">
<path d="M19.455 2.01613C18.6376 2.5066 17.7657 2.83357 16.8392 3.05155C16.0763 2.23412 15.0409 1.74365 13.842 1.74365C11.5531 1.74365 9.75477 3.65101 9.75477 5.93984C9.75477 6.26681 9.80926 6.59379 9.86376 6.92076C6.43052 6.70278 3.43324 5.01341 1.41689 2.4521C1.08992 3.05155 0.871935 3.8145 0.871935 4.57744C0.871935 6.04883 1.58038 7.30224 2.7248 8.06518C2.07084 8.06518 1.41689 7.84719 0.871935 7.52022V7.62921C0.871935 9.64556 2.28883 11.3894 4.14169 11.7709C3.81471 11.8799 3.43324 11.9344 3.05177 11.9344C2.77929 11.9344 2.50681 11.9344 2.28883 11.8799C2.83379 13.5693 4.30518 14.7682 6.10354 14.8227C4.68665 15.9671 2.94278 16.621 0.980926 16.621C0.653951 16.621 0.326975 16.621 0 16.5665C1.79837 17.7654 3.9782 18.4739 6.26703 18.4739C13.842 18.4739 17.9292 12.0434 17.9292 6.4848C17.9292 6.32131 17.9292 6.10332 17.9292 5.93984C18.7466 5.34038 19.455 4.63194 20 3.76C19.2916 4.08698 18.4741 4.30496 17.6567 4.41395C18.4741 3.8145 19.1281 2.99706 19.455 2.01613Z" fill="#B3B3B3"/>
</g>
<defs>
<clipPath id="clip0_2_1219">
<rect width="20" height="20" fill="white"/>
</clipPath>
</defs>
</svg>
