<svg width="20" height="20" viewBox="0 0 20 20" fill="none" xmlns="http://www.w3.org/2000/svg">
<g clip-path="url(#clip0_2_1228)">
<path d="M19.891 14.6049C19.891 14.5504 19.8365 14.4959 19.8365 14.4959C19.5095 13.8965 18.8011 13.079 17.8202 12.2071C17.3842 11.7711 17.1117 11.4986 17.0027 11.3351C16.7847 11.0627 16.7302 10.7902 16.8392 10.5177C16.9482 10.2997 17.2207 9.86376 17.7657 9.15531C18.0381 8.77384 18.2561 8.50136 18.4196 8.28338C19.6185 6.703 20.1635 5.66757 20 5.23161L19.9455 5.12261C19.891 4.95913 19.782 4.90463 19.6185 4.85013C19.455 4.79564 19.2371 4.79564 18.9646 4.85013H15.9673C15.9128 4.85013 15.8583 4.85013 15.7493 4.85013C15.6403 4.85013 15.6403 4.90463 15.6403 4.90463H15.5858L15.5313 4.95913C15.4768 4.95913 15.4768 5.01362 15.4223 5.06812C15.3678 5.12261 15.3678 5.17711 15.3134 5.23161C14.9864 6.04904 14.6049 6.86648 14.2234 7.57493C13.951 8.0109 13.733 8.39237 13.515 8.71934C13.297 9.04632 13.1335 9.2643 12.97 9.42779C12.8065 9.59128 12.6975 9.70027 12.5886 9.80926C12.4796 9.91825 12.3706 9.91825 12.3161 9.91825C12.2616 9.91825 12.2071 9.86376 12.1526 9.86376C12.0436 9.80926 11.9891 9.70027 11.9346 9.59128C11.8801 9.48229 11.8256 9.3733 11.8256 9.20981C11.8256 9.04632 11.7711 8.88283 11.7711 8.77384C11.7711 8.66485 11.7711 8.50136 11.7711 8.28338C11.7711 8.06539 11.7711 7.90191 11.7711 7.84741C11.7711 7.57493 11.7711 7.30245 11.7711 6.97548C11.7711 6.6485 11.7711 6.43052 11.7711 6.26703C11.7711 6.10354 11.7711 5.88556 11.7711 5.66757C11.7711 5.44959 11.7711 5.2861 11.7166 5.17711C11.7166 5.06812 11.6621 4.95913 11.6076 4.85013C11.5531 4.74114 11.4986 4.63215 11.3896 4.57766C11.2807 4.52316 11.1717 4.46866 11.0627 4.41417C10.6812 4.30518 10.2452 4.30518 9.64578 4.30518C8.33788 4.30518 7.52044 4.35967 7.13896 4.57766C6.97548 4.63215 6.86648 4.74114 6.75749 4.90463C6.6485 5.06812 6.59401 5.12261 6.703 5.17711C7.13896 5.23161 7.41144 5.39509 7.57493 5.61308L7.62943 5.72207C7.68392 5.83106 7.73842 5.99455 7.79292 6.21253C7.84741 6.43052 7.84741 6.703 7.90191 6.97548C7.9564 7.46594 7.9564 7.90191 7.90191 8.28338C7.84741 8.66485 7.84741 8.93733 7.79292 9.10082C7.73842 9.3188 7.73842 9.48229 7.62943 9.59128C7.57493 9.70027 7.52044 9.80926 7.52044 9.80926C7.52044 9.86376 7.46594 9.86376 7.46594 9.86376C7.35695 9.91825 7.30245 9.91825 7.19346 9.91825C7.08447 9.91825 6.97548 9.86376 6.86649 9.75477C6.703 9.64577 6.59401 9.53678 6.43052 9.3733C6.26703 9.20981 6.10354 8.99182 5.94005 8.66485C5.77657 8.33787 5.55858 8.0109 5.3406 7.57493L5.17711 7.24795C5.06812 7.02997 4.90463 6.75749 4.74114 6.37602C4.57766 5.99455 4.41417 5.66757 4.25068 5.2861C4.19619 5.17711 4.08719 5.06812 3.9782 4.95913H3.92371C3.86921 4.90463 3.81471 4.90463 3.76022 4.85013C3.70572 4.85013 3.59673 4.79564 3.54223 4.79564H0.708447C0.381471 4.79564 0.163488 4.90463 0.0544959 5.01362V5.06812C0 5.12261 0 5.17711 0 5.23161C0 5.2861 0 5.39509 0.0544959 5.50409C0.490463 6.48501 0.92643 7.41144 1.41689 8.33787C1.90736 9.2643 2.34332 9.97275 2.6703 10.5177C3.05177 11.0627 3.37875 11.6076 3.76022 12.0981C4.14169 12.5886 4.35967 12.9155 4.52316 13.0245C4.63215 13.188 4.74114 13.2425 4.79564 13.3515L5.06812 13.624C5.23161 13.7875 5.50409 14.0054 5.77657 14.2234C6.10354 14.4414 6.43052 14.6594 6.86649 14.9319C7.24796 15.1499 7.73842 15.3678 8.22888 15.4768C8.77384 15.6403 9.26431 15.6948 9.75477 15.6403H10.9537C11.1717 15.6403 11.3896 15.5313 11.4986 15.4223L11.5531 15.3678C11.6076 15.3133 11.6076 15.2589 11.6076 15.1499C11.6076 15.0409 11.6621 14.9864 11.6621 14.8774C11.6621 14.6049 11.6621 14.3324 11.7166 14.0599C11.7711 13.842 11.8256 13.624 11.8801 13.515C11.9346 13.406 12.0436 13.297 12.0981 13.188C12.2071 13.079 12.2616 13.079 12.2616 13.0245C12.3161 13.0245 12.3161 12.97 12.3706 12.97C12.5341 12.9155 12.752 12.97 12.97 13.1335C13.188 13.297 13.406 13.515 13.624 13.733C13.842 13.951 14.0599 14.2234 14.3324 14.5504C14.6049 14.8229 14.8774 15.0954 15.0409 15.2044L15.2589 15.3133C15.4223 15.4223 15.5858 15.4768 15.8038 15.5313C16.0218 15.5858 16.2398 15.6403 16.4033 15.5858L19.0736 15.5313C19.346 15.5313 19.564 15.4768 19.673 15.4223C19.8365 15.3133 19.891 15.2589 19.9455 15.1499C20 15.0409 20 14.9319 19.9455 14.7684C19.9455 14.7684 19.9455 14.6594 19.891 14.6049Z" fill="#B3B3B3"/>
</g>
<defs>
<clipPath id="clip0_2_1228">
<rect width="20" height="20" fill="white"/>
</clipPath>
</defs>
</svg>
